<?xml version="1.0" encoding="utf-8"?>
<!-- Generator: Adobe Illustrator 21.1.0, SVG Export Plug-In . SVG Version: 6.00 Build 0)  -->
<svg version="1.1" id="Capa_1" xmlns="http://www.w3.org/2000/svg" xmlns:xlink="http://www.w3.org/1999/xlink" x="0px" y="0px"
	 viewBox="0 0 212.4 60" style="enable-background:new 0 0 212.4 60;" xml:space="preserve">
<style type="text/css">
	.st0{fill:#007EE5;}
</style>
<path class="st0" d="M30,0C13.4,0,0,13.4,0,30s13.4,30,30,30s30-13.4,30-30S46.6,0,30,0z M43.7,44.7H27.2c1.4-1,2.5-2.3,3.4-3.8
	h13.1c1.5,0,2.6-1.2,2.6-2.6c0-1.5-1.2-2.6-2.6-2.6h-5.8v-3.8h3.5c1.3,0,2.3-1,2.3-2.3s-1-2.3-2.3-2.3h-2.4c-2.3,0-4.1,0.5-5.4,3.1
	c-0.1,0.2-2.7,5.2-4.7,8.5c-0.2,0.3-0.3,0.5-0.5,0.8l0,0c-0.1,0.1-0.1,0.2-0.2,0.3l0,0c-0.1,0.1-0.2,0.2-0.2,0.3
	c-2,2.7-5.1,4.3-8.5,4.3c-0.2,0-0.4,0-0.6,0v0l-0.4,0c-5.5-0.5-9.6-5-9.6-10.5c0-5.4,4.1-9.9,9.4-10.5c0.3-6.6,5.7-11.7,12.4-11.7
	c5.7,0,10.6,3.8,12,9.4l0,0.1c-0.1,0-0.3,0-0.4,0c-0.9,0-1.6,0-2.6,0c-0.4,0-0.8,0-1,0c-1.2-3.4-4.5-5.7-8.1-5.7
	c-4.6,0-8.4,3.7-8.6,8.2c1.9,0.5,3.6,1.5,5,2.9l0.3,0.3l-2.7,2.6l-0.3-0.3c-1.3-1.3-3-2.1-4.9-2.1c-3.8,0-6.8,3.1-6.8,6.8
	s3.1,6.8,6.8,6.8c2.2,0,4.2-1,5.4-2.7c2-2.7,5.4-9.4,5.4-9.5c1.3-2.6,3.2-4.2,5.7-4.8c0.5-0.1,1-0.2,1.5-0.3c0.1,0,0.1,0,0.2,0v0
	l0.4,0h3.4c0.2,0,0.4,0,0.6,0c0,0,0,0,0.1,0c0.2,0,0.4,0.1,0.6,0.1l0,0c0.4,0.1,0.8,0.2,1.2,0.4c2.2,1,3.6,3.1,3.6,5.5
	c0,1.1-0.3,2.1-0.8,3c2.1,1.1,3.5,3.3,3.5,5.7C50.1,41.8,47.2,44.7,43.7,44.7z"/>
<path class="st0" d="M82.5,22.1c-5,0-8.9,3.8-8.9,8.7s3.9,8.8,8.9,8.8c2.5,0,5-1.1,6.9-2.9l2.5,2.8c-2.5,2.5-6.1,4.1-9.6,4.1
	c-7.3,0-12.9-5.5-12.9-12.7c0-7.1,5.7-12.5,13.1-12.5c3.5,0,7,1.5,9.5,3.8l-2.5,3.1C87.6,23.3,85,22.1,82.5,22.1z"/>
<path class="st0" d="M98.4,18.5v24.9h-4.1V18.5H98.4z"/>
<path class="st0" d="M120.8,33.9c0,5.7-4,9.6-9.8,9.6c-5.9,0-9.9-3.9-9.9-9.6c0-5.7,4-9.6,9.9-9.6C116.8,24.3,120.8,28.2,120.8,33.9
	z M105.1,34c0,3.7,2.4,6.1,5.8,6.1c3.4,0,5.8-2.5,5.8-6.1c0-3.6-2.4-6.1-5.8-6.1C107.5,27.8,105.1,30.3,105.1,34z"/>
<path class="st0" d="M140.4,24.5v18.9h-4.1v-3.7c-1.3,2.6-3.7,3.8-6.8,3.8c-4.3,0-6.9-2.8-6.9-7.3V24.5h4.1v10.6
	c0,2.8,1.7,4.6,4.4,4.6c3.3-0.1,5.2-2.6,5.2-5.9v-9.3H140.4z"/>
<path class="st0" d="M162.7,18.5v24.9h-4.1v-3.2c-1.4,2.2-3.6,3.4-6.6,3.4c-5.4,0-9.1-3.9-9.1-9.7c0-5.7,3.7-9.6,9-9.6
	c3.1,0,5.3,1.2,6.7,3.4v-9.2H162.7z M158.6,34c0-3.7-2.4-6.2-5.8-6.2c-3.4,0-5.8,2.6-5.8,6.2c0,3.6,2.4,6.1,5.8,6.1
	C156.2,40.1,158.6,37.6,158.6,34z"/>
<path class="st0" d="M185.4,24.7c0,2.8-1.7,4.9-4.4,5.5c3.3,0.6,5.3,2.9,5.3,6.3c0,4.3-3.4,6.8-9.1,6.8h-11.1V18.5h10.8
	C182.2,18.5,185.4,20.8,185.4,24.7z M181.1,25.5c0-2.1-1.6-3.2-4.3-3.2h-6.4v6.5h6.4C179.5,28.8,181.1,27.6,181.1,25.5z M182.1,36
	c0-2.2-2-3.6-5.2-3.5h-6.4v7.1h6.4C180.2,39.6,182.1,38.3,182.1,36z"/>
<path class="st0" d="M193.8,19.6c0,1.4-1,2.4-2.4,2.4c-1.4,0-2.4-1-2.4-2.4c0-1.4,1-2.5,2.4-2.5C192.7,17.2,193.8,18.2,193.8,19.6z
	 M193.4,24.5v18.9h-4.1V24.5H193.4z"/>
<path class="st0" d="M212.1,24.5v2.7L201.3,40l11.1,0v3.3l-16.2,0v-2.8l10.8-12.8h-10.5v-3.3L212.1,24.5z"/>
</svg>
